<svg xmlns="http://www.w3.org/2000/svg" viewBox="0 0 400 400">
  <rect width="400" height="400" rx="84" fill="#1E3A5F"/>
  <g transform="translate(28,20)">
    <path fill="#ffffff" d="M181.87 323.18l-20.21 0 0 -122.19c0,-5.83 7.83,-2.16 12.79,-2.16 5.36,0 10.63,0 15.98,0 22.7,0.16 61.54,-9.59 61.69,21.18 0.08,17.42 3.51,74.96 -1.44,89.02 -5.51,15.66 -18.14,14.23 -28.37,14.15 -6.07,0 -8.23,0.64 -12.79,1.04l-27.56 -1.04 -0.08 0zm50.99 -158.31l-57.37 0c-6.48,0 -7.75,-1.04 -13.83,-1.04l0 -118.99c9.51,0 14.79,-1.04 24.45,-1.04 9.83,0 47.71,-0.64 53.94,2.39 5.84,2.88 11.91,10.55 11.91,18.86l0 77.6c0,11.82 -7.6,22.29 -19.11,22.29l0.01 -0.07zm-192.35 194.51c0,2.47 0.72,3.2 3.2,3.2l266.75 0c14.87,0 37.97,-11.03 44.2,-19.58 9.99,-13.58 18.46,-21.73 18.46,-45.3l0 -59.53c0,-20.29 -6.48,-25.96 -16.7,-36.43 -9.99,-10.15 -16.22,-10.38 -25.09,-14.22 -4.47,-1.91 -6.96,-1.43 -8.14,-5.67 16.06,0 39.23,-16.54 45.71,-32.92 6.79,-17.18 4.24,-56.74 4.24,-78.64 0,-8.56 -0.79,-21.18 -2.8,-28.04 -1.2,-4.24 -2.95,-6 -5.03,-9.83 -2.39,-4.47 -3.67,-5.59 -6.63,-9.35 -1.68,-2.08 -1.6,-2.16 -3.36,-4.07l-3.51 -3.92c-2.88,-2.55 -6.39,-3.68 -10.22,-5.75 -8.08,-4.32 -11.34,-8.14 -23.74,-8.14l-277.37 0 0 358.17 0.04 0.05z"/>
  </g>
</svg>
